<svg id="Layer_1" xmlns="http://www.w3.org/2000/svg" viewBox="0 0 295.1 337.3">
  <style>
    .st0{fill:#19dcf5;} .st1{fill:#FFFFFF;}
  </style>
  <path class="st0" d="M84.3 253v42.1H42.2V253h42.1zm-42.1 0H.1v-2.8h42.1v2.8zm0-5.6H.1v-2.8h42.1v2.8zm0-5.6H.1V239h42.1v2.8zm-.1-5.6H0v-2.8h42.1v2.8zm0-5.7H0v-2.8h42.1v2.8zM84.3 0v42.1H42.2V0h42.1zM42.2 224.9H.1v-2.8h42.1v2.8zm0-5.6H.1v-2.8h42.1v2.8zm0-5.6H.1v-2.8h42.1v2.8zm-.1-87.2v42.1h-2.8v-42.1h2.8zm126.5-42.2v42.1h-42.1V84.3h42.1zm-132 42.2v42.1h-2.8v-42.1h2.8zm-5.7 0v42.1h-2.8v-42.1h2.8zm-5.6 0v42.1h-2.8v-42.1h2.8zm-5.6 0v42.1h-2.8v-42.1h2.8zm-5.7 0v42.1h-2.8v-42.1H14zM253 0v42.1h-42.1V0H253zM8.4 126.5v42.1H5.6v-42.1h2.8zm-5.6 0v42.1H0v-42.1h2.8zm208 168.7v42.1H208v-42.1h2.8zm-5.6 0v42.1h-2.8v-42.1h2.8zm-5.6 0v42.1h-2.8v-42.1h2.8zm-5.7 0v42.1h-2.8v-42.1h2.8zm-5.6 0v42.1h-2.8v-42.1h2.8zm-5.6 0v42.1h-2.8v-42.1h2.8zM42.2 84.4H.1v-2.8h42.1v2.8zm134.9 210.8v42.1h-2.8v-42.1h2.8zM42.2 78.8H.1V76h42.1v2.8zm-.1-5.6H0v-2.8h42.1v2.8zm129.4 222v42.1h-2.8v-42.1h2.8zM42.1 67.5H0v-2.8h42.1v2.8zm0-5.6H0v-2.8h42.1v2.8zm.1-5.6H.1v-2.8h42.1v2.8zm0-5.6H.1v-2.8h42.1v2.8zm0-5.7H.1v-2.8h42.1V45zm168.6 208h-42.1v-2.8h42.1v2.8zm0-5.6h-42.1v-2.8h42.1v2.8zm0-5.6h-42.1V239h42.1v2.8zm0-5.6h-42.1v-2.8h42.1v2.8zm0-5.7h-42.1v-2.8h42.1v2.8zm0-5.6h-42.1v-2.8h42.1v2.8zm84.3 70.3v42.1h-2.8v-42.1h2.8zm-84.3-75.9h-42.1v-2.8h42.1v2.8zm78.7 75.9v42.1h-2.8v-42.1h2.8zm-78.7-81.5h-42.1v-2.8h42.1v2.8zm73 81.5v42.1H281v-42.1h2.8zm-5.5 0v42.1h-2.8v-42.1h2.8zm-5.6 0v42.1h-2.8v-42.1h2.8zm-5.7 0v42.1h-2.8v-42.1h2.8zM126.5 84.3H84.4v-2.8h42.1v2.8zm134.9 210.9v42.1h-2.8v-42.1h2.8zM126.5 78.7H84.4v-2.8h42.1v2.8zm129.2 216.5v42.1h-2.8v-42.1h2.8zM126.4 73.1H84.3v-2.8h42.1v2.8zm0-5.6H84.3v-2.8h42.1v2.8zm.1-5.6H84.4v-2.8h42.1v2.8zm0-5.7H84.4v-2.8h42.1v2.8zm0-5.6H84.4v-2.8h42.1v2.8zm0-5.6H84.4v-2.8h42.1V45zm84.3 81.5v42.1H208v-42.1h2.8zm-5.6 0v42.1h-2.8v-42.1h2.8zm-5.6 0v42.1h-2.8v-42.1h2.8zm-5.7 0v42.1h-2.8v-42.1h2.8zm-5.6 0v42.1h-2.8v-42.1h2.8zm-5.6 0v42.1h-2.8v-42.1h2.8zm28.1-42.1h-42.1v-2.8h42.1v2.8zm-33.7 42.1v42.1h-2.8v-42.1h2.8zm33.7-47.7h-42.1V76h42.1v2.8zm-39.3 47.7v42.1h-2.8v-42.1h2.8zm39.2-53.3h-42.1v-2.8h42.1v2.8zm.1-5.7h-42.1v-2.8h42.1v2.8zm0-5.6h-42.1v-2.8h42.1v2.8zm0-5.6h-42.1v-2.8h42.1v2.8zm0-5.6h-42.1v-2.8h42.1v2.8zm0-5.7h-42.1v-2.8h42.1V45zm84.3 39.3H253v-2.8h42.1v2.8zm0-5.6H253v-2.8h42.1v2.8zm0-5.6H253v-2.8h42.1v2.8zm0-5.6H253v-2.8h42.1v2.8zm0-5.6H253v-2.8h42.1v2.8zm0-5.7H253v-2.8h42.1v2.8zm0-5.6H253v-2.8h42.1v2.8zm0-5.6H253v-2.8h42.1V45z"/>
  <path class="st1" d="M42.1 295.2v42.1h-2.8v-42.1h2.8zm-5.5 0v42.1h-2.8v-42.1h2.8zm-5.7 0v42.1h-2.8v-42.1h2.8zm-5.6 0v42.1h-2.8v-42.1h2.8zm-5.6 0v42.1h-2.8v-42.1h2.8zm-5.7 0v42.1h-2.8v-42.1H14zm70.3-126.5v42.1H42.2v-42.1h42.1zM8.4 295.2v42.1H5.6v-42.1h2.8zM168.6 253v42.1h-42.1V253h42.1zM2.8 295.2v42.1H0v-42.1h2.8zm165.8-126.5v42.1h-42.1v-42.1h42.1zM253 253v42.1h-42.1V253H253zM168.6 0v42.1h-42.1V0h42.1zM253 84.3v42.1h-42.1V84.3H253zm-126.5 42.2v42.1h-2.8v-42.1h2.8zm-5.7 0v42.1H118v-42.1h2.8zm-5.6 0v42.1h-2.8v-42.1h2.8zm-5.6 0v42.1h-2.8v-42.1h2.8zm-5.6 0v42.1h-2.8v-42.1h2.8zm-5.6 0v42.1h-2.8v-42.1h2.8zm-5.7 0v42.1h-2.8v-42.1h2.8zm-5.6 0v42.1h-2.8v-42.1h2.8z"/>
</svg>
