<svg id="Layer_1" xmlns="http://www.w3.org/2000/svg" viewBox="0 0 112 112.1">
  <style>
    .st0{fill:#19dcf5;} .st1{fill:none;} .st2{fill:none;stroke:#19dcf5;stroke-width:3;}
  </style>
  <g id="group-334">
    <path id="rectangle" class="st0" d="M103.7 75.2h7.4v7.4h-7.4z"/>
    <path id="rectangle-2" class="st0" d="M.6 1.6H8V9H.6z"/>
    <g id="rectangle-64">
      <path class="st1" d="M0 0h112v112H0z"/>
      <path class="st2" d="M1.5 1.5h109v109H1.5z"/>
    </g>
    <path id="rectangle-3" class="st0" d="M8 9h7.4v7.4H8z"/>
    <path id="rectangle-4" class="st0" d="M15.2 16.3h7.4v7.4h-7.4z"/>
    <path id="rectangle-5" class="st0" d="M22.6 23.6H30V31h-7.4z"/>
    <path id="rectangle-6" class="st0" d="M30 31h7.4v7.4H30z"/>
    <path id="rectangle-7" class="st0" d="M37.3 38.3h7.4v7.4h-7.4z"/>
    <path id="rectangle-8" class="st0" d="M44.7 45.7h7.4v7.4h-7.4z"/>
    <path id="rectangle-9" class="st0" d="M52.1 53.1h7.4v7.4h-7.4z"/>
    <path id="rectangle-10" class="st0" d="M59.4 60.4h7.4v7.4h-7.4z"/>
    <path id="rectangle-11" class="st0" d="M66.8 67.8h7.4v7.4h-7.4z"/>
    <path id="rectangle-12" class="st0" d="M74.2 75.2h7.4v7.4h-7.4z"/>
    <path id="rectangle-13" class="st0" d="M81.6 82.6H89V90h-7.4z"/>
    <path id="rectangle-14" class="st0" d="M88.9 89.9h7.4v7.4h-7.4z"/>
    <path id="rectangle-15" class="st0" d="M96.3 97.3h7.4v7.4h-7.4z"/>
    <path id="rectangle-16" class="st0" d="M103.7 104.7h7.4v7.4h-7.4z"/>
    <path id="rectangle-17" class="st0" d="M15.2 1.6h7.4V9h-7.4z"/>
    <path id="rectangle-18" class="st0" d="M22.6 9H30v7.4h-7.4z"/>
    <path id="rectangle-19" class="st0" d="M30 16.3h7.4v7.4H30z"/>
    <path id="rectangle-20" class="st0" d="M37.3 23.6h7.4V31h-7.4z"/>
    <path id="rectangle-21" class="st0" d="M44.7 31h7.4v7.4h-7.4z"/>
    <path id="rectangle-22" class="st0" d="M52.1 38.3h7.4v7.4h-7.4z"/>
    <path id="rectangle-23" class="st0" d="M59.4 45.7h7.4v7.4h-7.4z"/>
    <path id="rectangle-24" class="st0" d="M66.8 53.1h7.4v7.4h-7.4z"/>
    <path id="rectangle-25" class="st0" d="M74.2 60.4h7.4v7.4h-7.4z"/>
    <path id="rectangle-26" class="st0" d="M81.6 67.8H89v7.4h-7.4z"/>
    <path id="rectangle-27" class="st0" d="M88.9 75.2h7.4v7.4h-7.4z"/>
    <path id="rectangle-28" class="st0" d="M96.3 82.6h7.4V90h-7.4z"/>
    <path id="rectangle-29" class="st0" d="M103.7 89.9h7.4v7.4h-7.4z"/>
    <path id="rectangle-30" class="st0" d="M30 1.6h7.4V9H30z"/>
    <path id="rectangle-31" class="st0" d="M37.3 9h7.4v7.4h-7.4z"/>
    <path id="rectangle-32" class="st0" d="M44.7 16.3h7.4v7.4h-7.4z"/>
    <path id="rectangle-33" class="st0" d="M52.1 23.6h7.4V31h-7.4z"/>
    <path id="rectangle-34" class="st0" d="M59.4 31h7.4v7.4h-7.4z"/>
    <path id="rectangle-35" class="st0" d="M66.8 38.3h7.4v7.4h-7.4z"/>
    <path id="rectangle-36" class="st0" d="M74.2 45.7h7.4v7.4h-7.4z"/>
    <path id="rectangle-37" class="st0" d="M81.6 53.1H89v7.4h-7.4z"/>
    <path id="rectangle-38" class="st0" d="M88.9 60.4h7.4v7.4h-7.4z"/>
    <path id="rectangle-39" class="st0" d="M96.3 67.8h7.4v7.4h-7.4z"/>
    <path id="rectangle-40" class="st0" d="M44.7 1.6h7.4V9h-7.4z"/>
    <path id="rectangle-41" class="st0" d="M52.1 9h7.4v7.4h-7.4z"/>
    <path id="rectangle-42" class="st0" d="M59.4 16.3h7.4v7.4h-7.4z"/>
    <path id="rectangle-43" class="st0" d="M66.8 23.6h7.4V31h-7.4z"/>
    <path id="rectangle-44" class="st0" d="M74.2 31h7.4v7.4h-7.4z"/>
    <path id="rectangle-45" class="st0" d="M81.6 38.3H89v7.4h-7.4z"/>
    <path id="rectangle-46" class="st0" d="M88.9 45.7h7.4v7.4h-7.4z"/>
    <path id="rectangle-47" class="st0" d="M96.3 53.1h7.4v7.4h-7.4z"/>
    <path id="rectangle-48" class="st0" d="M103.7 60.4h7.4v7.4h-7.4z"/>
    <path id="rectangle-49" class="st0" d="M59.4 1.6h7.4V9h-7.4z"/>
    <path id="rectangle-50" class="st0" d="M66.8 9h7.4v7.4h-7.4z"/>
    <path id="rectangle-51" class="st0" d="M74.2 16.3h7.4v7.4h-7.4z"/>
    <path id="rectangle-52" class="st0" d="M81.6 23.6H89V31h-7.4z"/>
    <path id="rectangle-53" class="st0" d="M88.9 31h7.4v7.4h-7.4z"/>
    <path id="rectangle-54" class="st0" d="M96.3 38.3h7.4v7.4h-7.4z"/>
    <path id="rectangle-55" class="st0" d="M103.7 45.7h7.4v7.4h-7.4z"/>
    <path id="rectangle-56" class="st0" d="M74.2 1.6h7.4V9h-7.4z"/>
    <path id="rectangle-57" class="st0" d="M81.6 9H89v7.4h-7.4z"/>
    <path id="rectangle-58" class="st0" d="M88.9 16.3h7.4v7.4h-7.4z"/>
    <path id="rectangle-59" class="st0" d="M96.3 23.6h7.4V31h-7.4z"/>
    <path id="rectangle-60" class="st0" d="M103.7 31h7.4v7.4h-7.4z"/>
    <path id="rectangle-61" class="st0" d="M88.9 1.6h7.4V9h-7.4z"/>
    <path id="rectangle-62" class="st0" d="M96.3 9h7.4v7.4h-7.4z"/>
    <path id="rectangle-63" class="st0" d="M103.7 16.3h7.4v7.4h-7.4z"/>
    <path id="rectangle-64-2" class="st0" d="M103.7 1.6h7.4V9h-7.4z"/>
    <path id="rectangle-65" class="st0" d="M.6 16.3H8v7.4H.6z"/>
    <path id="rectangle-66" class="st0" d="M8 23.6h7.4V31H8z"/>
    <path id="rectangle-67" class="st0" d="M15.2 31h7.4v7.4h-7.4z"/>
    <path id="rectangle-68" class="st0" d="M22.6 38.3H30v7.4h-7.4z"/>
    <path id="rectangle-69" class="st0" d="M30 45.7h7.4v7.4H30z"/>
    <path id="rectangle-70" class="st0" d="M37.3 53.1h7.4v7.4h-7.4z"/>
    <path id="rectangle-71" class="st0" d="M44.7 60.4h7.4v7.4h-7.4z"/>
    <path id="rectangle-72" class="st0" d="M52.1 67.8h7.4v7.4h-7.4z"/>
    <path id="rectangle-73" class="st0" d="M59.4 75.2h7.4v7.4h-7.4z"/>
    <path id="rectangle-74" class="st0" d="M66.8 82.6h7.4V90h-7.4z"/>
    <path id="rectangle-75" class="st0" d="M74.2 89.9h7.4v7.4h-7.4z"/>
    <path id="rectangle-76" class="st0" d="M81.6 97.3H89v7.4h-7.4z"/>
    <path id="rectangle-77" class="st0" d="M88.9 104.7h7.4v7.4h-7.4z"/>
    <path id="rectangle-78" class="st0" d="M.6 31H8v7.4H.6z"/>
    <path id="rectangle-79" class="st0" d="M8 38.3h7.4v7.4H8z"/>
    <path id="rectangle-80" class="st0" d="M15.2 45.7h7.4v7.4h-7.4z"/>
    <path id="rectangle-81" class="st0" d="M22.6 53.1H30v7.4h-7.4z"/>
    <path id="rectangle-82" class="st0" d="M30 60.4h7.4v7.4H30z"/>
    <path id="rectangle-83" class="st0" d="M37.3 67.8h7.4v7.4h-7.4z"/>
    <path id="rectangle-84" class="st0" d="M44.7 75.2h7.4v7.4h-7.4z"/>
    <path id="rectangle-85" class="st0" d="M52.1 82.6h7.4V90h-7.4z"/>
    <path id="rectangle-86" class="st0" d="M59.4 89.9h7.4v7.4h-7.4z"/>
    <path id="rectangle-87" class="st0" d="M66.8 97.3h7.4v7.4h-7.4z"/>
    <path id="rectangle-88" class="st0" d="M74.2 104.7h7.4v7.4h-7.4z"/>
    <path id="rectangle-89" class="st0" d="M.6 45.7H8v7.4H.6z"/>
    <path id="rectangle-90" class="st0" d="M8 53.1h7.4v7.4H8z"/>
    <path id="rectangle-91" class="st0" d="M15.2 60.4h7.4v7.4h-7.4z"/>
    <path id="rectangle-92" class="st0" d="M22.6 67.8H30v7.4h-7.4z"/>
    <path id="rectangle-93" class="st0" d="M30 75.2h7.4v7.4H30z"/>
    <path id="rectangle-94" class="st0" d="M37.3 82.6h7.4V90h-7.4z"/>
    <path id="rectangle-95" class="st0" d="M44.7 89.9h7.4v7.4h-7.4z"/>
    <path id="rectangle-96" class="st0" d="M52.1 97.3h7.4v7.4h-7.4z"/>
    <path id="rectangle-97" class="st0" d="M59.4 104.7h7.4v7.4h-7.4z"/>
    <path id="rectangle-98" class="st0" d="M.6 60.4H8v7.4H.6z"/>
    <path id="rectangle-99" class="st0" d="M8 67.8h7.4v7.4H8z"/>
    <path id="rectangle-100" class="st0" d="M15.2 75.2h7.4v7.4h-7.4z"/>
    <path id="rectangle-101" class="st0" d="M22.6 82.6H30V90h-7.4z"/>
    <path id="rectangle-102" class="st0" d="M30 89.9h7.4v7.4H30z"/>
    <path id="rectangle-103" class="st0" d="M37.3 97.3h7.4v7.4h-7.4z"/>
    <path id="rectangle-104" class="st0" d="M44.7 104.7h7.4v7.4h-7.4z"/>
    <path id="rectangle-105" class="st0" d="M.6 75.2H8v7.4H.6z"/>
    <path id="rectangle-106" class="st0" d="M8 82.6h7.4V90H8z"/>
    <path id="rectangle-107" class="st0" d="M15.2 89.9h7.4v7.4h-7.4z"/>
    <path id="rectangle-108" class="st0" d="M22.6 97.3H30v7.4h-7.4z"/>
    <path id="rectangle-109" class="st0" d="M30 104.7h7.4v7.4H30z"/>
    <path id="rectangle-110" class="st0" d="M.6 89.9H8v7.4H.6z"/>
    <path id="rectangle-111" class="st0" d="M8 97.3h7.4v7.4H8z"/>
    <path id="rectangle-112" class="st0" d="M15.2 104.7h7.4v7.4h-7.4z"/>
    <path id="rectangle-113" class="st0" d="M.6 104.7H8v7.4H.6z"/>
  </g>
</svg>
