<svg id="Layer_1" xmlns="http://www.w3.org/2000/svg" viewBox="0 0 134 134.4">
  <style>
    .st0{fill:#19DCF5;}
  </style>
  <path class="st0" d="M23.5 0h7.4v7.4h-7.4zM89.7 73.6h-7.3v-7.4H75v7.4h-7.4V81H75v7.3h-7.4v7.4H75v-7.3h7.3v7.3h7.4v-7.3h7.4V81h-7.4v-7.4h7.4v-7.4h-7.4v7.4zM82.3 81H75v-7.4h7.3V81zm.2 0h7.3v7.3h-7.3V81z"/>
  <path class="st0" d="M97.1 73.6h7.4V81h-7.4zM126.6 95.7h-7.4v7.4h7.4v7.4h7.4v-7.4h-7.4zM38.2 0h7.4v7.4h-7.4zM45.6 7.4H53v7.4h-7.4zM89.7 44.2h-7.4v7.4H75v-7.4h-7.4v7.4H75v7.3h-7.4v7.4H75V59h7.3v7.3h7.4V59h7.4v-7.4h-7.4v-7.4zm0 7.3v7.3h-7.3v-7.3h7.3z"/>
  <path class="st0" d="M97.1 58.8h7.4v7.4h-7.4zM53 0h7.4v7.4H53zM97.1 44.2h7.4v7.4h-7.4zM126.6 66.2h-7.4v7.4h7.4V81h-7.4v7.4h7.4v7.3h7.4v-7.4h-7.4V81h7.4v-7.4h-7.4zM67.7 0h7.4v7.4h-7.4zM97.1 29.5h7.4v7.4h-7.4zM82.3 0h7.4v7.4h-7.4zM126.6 51.5h-7.4v7.4h7.4v7.3h7.4v-7.4h-7.4v-7.3h7.4v-7.3h-7.4zM97.1 0h7.4v7.4h-7.4z"/>
  <path class="st0" d="M111.9 7.4h-7.4v7.4h7.3v6.6h-7.3v-6.7h-7.4v6.7h-7.4v-6.6h7.4V7.4h-7.4v7.3h-7.3V7.4H75v7.3h-7.4v6.7h-7.3v-6.6h7.3V7.4h-7.4v7.3H53v6.7h-7.4v-6.7h-7.3V7.4h-7.4v7.4h7.3v6.6h-7.3v-6.7h-7.4v6.7H0v113h112v-23.9h7.2v-7.4H112v-7.4h7.2v-7.4H112V81h7.2v-7.4H112v-7.4h7.2v-7.4H112v-7.3h7.2v-7.4H112v-7.3h7.2v-7.4H112V22h7.2v-7.4h-7.3V7.4zM89.7 29.5h-7.3v-5.1h7.3v5.1zm-7.4 7.3H75v-7.3h7.3v7.3zm-7.2-22h7.3v6.6h-7.3v-6.6zM3 131.4v-107h27.9v5.1h7.3v7.3h-7.3v7.4h7.4v-7.3h7.3v-7.4h-7.3v-5.1h7.3v5.1H53v-5.1h7.3v5.1H53v7.4h7.3v7.3h7.4v-7.4h-7.3v-7.3h7.3v-5.1h7.4v5.1h-7.4v7.4h7.4v7.3h7.4v-7.3h7.3v7.3h7.4v-7.4h-7.4v-7.3h7.4v-5.1h7.4v5.1h4.5v7.3h-4.5v7.4h4.5v7.4h-4.5V59h4.5v7.3h-4.5v7.4h4.5V81h-4.5v7.4h4.5v7.3h-4.5v7.4h4.5v28.3H3zM111.8 0h7.4v7.4h-7.4z"/>
  <path class="st0" d="M126.6 7.4h-7.4v7.4h7.4v7.3h-7.4v7.4h7.4v7.3h-7.4v7.4h7.4v-7.3h7.4v-7.4h-7.4v-7.4h7.4v-7.4h-7.4zM126.6 0h7.4v7.4h-7.4zM45.6 36.8H53v7.4h-7.4zM60.4 44.2H53v7.3h7.3v7.3H53v7.4h7.4v-7.3h7.3v-7.4h-7.3zM97.1 88.3h7.4v7.4h-7.4zM23.5 29.5h7.4v7.4h-7.4zM38.2 51.5h-7.3v7.4h7.3v7.3h7.4v-7.4h-7.3v-7.3h7.3v-7.3h-7.4zM45.6 51.5H53v7.4h-7.4z"/>
  <path class="st0" d="M60.3 73.6H53V81h7.3v7.3H53v7.4h7.4v-7.3h7.3V81h-7.3v-7.4h7.3v-7.4h-7.4zM89.7 103.1h-7.2v-7.4h-7.4v7.4h-7.4v7.4h7.4v-7.4h7.2v7.4h7.4v-7.4h7.4v-7.4h-7.4z"/>
  <path class="st0" d="M97.1 103.1h7.4v7.4h-7.4zM23.5 44.2h7.4v7.4h-7.4zM45.6 66.2H53v7.4h-7.4zM23.5 58.8h7.4v7.4h-7.4zM38.3 66.2h-7.4v7.4h7.3V81h-7.3v7.4h7.3v7.3h7.4v-7.4h-7.3V81h7.3v-7.4h-7.3zM45.6 81H53v7.4h-7.4zM60.3 103.1H53v7.4h7.4v-7.4h7.3v-7.4h-7.4z"/>
  <path class="st0" d="M23.5 73.6h7.4V81h-7.4zM45.6 95.7H53v7.4h-7.4zM23.5 88.3h7.4v7.4h-7.4zM38.3 95.7h-7.4v7.4h7.3v7.4h7.4v-7.4h-7.3zM23.5 103.1h7.4v7.4h-7.4z"/>
</svg>
