<svg id="Layer_1" xmlns="http://www.w3.org/2000/svg" viewBox="0 0 295.1 337.2">
  <style>
    .st0{fill:#19dcf5;} .st1{fill:#FFFFFF;}
  </style>
  <path class="st0" d="M210.8 84.2V42.1h42.1v42.1h-42.1zm42.1 0H295V87h-42.1v-2.8zm0 5.6H295v2.8h-42.1v-2.8zm0 5.7H295v2.8h-42.1v-2.8zm.1 5.6h42.1v2.8H253v-2.8zm0 5.6h42.1v2.8H253v-2.8zm-42.2 230.5v-42.1h42.1v42.1h-42.1zM253 112.3h42.1v2.8H253v-2.8zm-.1 5.6H295v2.8h-42.1v-2.8zm0 5.7H295v2.8h-42.1v-2.8zm.1 87.1v-42.1h2.8v42.1H253zm-126.5 42.2v-42.1h42.1v42.1h-42.1zm132-42.2v-42.1h2.8v42.1h-2.8zm5.7 0v-42.1h2.8v42.1h-2.8zm5.6 0v-42.1h2.8v42.1h-2.8zm5.7 0v-42.1h2.8v42.1h-2.8zm5.6 0v-42.1h2.8v42.1h-2.8zm-239 126.5v-42.1h42.1v42.1H42.1zm244.6-126.5v-42.1h2.8v42.1h-2.8zm5.6 0v-42.1h2.8v42.1h-2.8zM84.3 42.1V0h2.8v42.1h-2.8zm5.6 0V0h2.8v42.1h-2.8zm5.6 0V0h2.8v42.1h-2.8zm5.7 0V0h2.8v42.1h-2.8zm5.6 0V0h2.8v42.1h-2.8zm5.7 0V0h2.8v42.1h-2.8zm140.4 210.7H295v2.8h-42.1v-2.8zM118 42.1V0h2.8v42.1H118zm134.9 216.4H295v2.8h-42.1v-2.8zm.1 5.6h42.1v2.8H253v-2.8zm-129.4-222V0h2.8v42.1h-2.8zM253 269.7h42.1v2.8H253v-2.8zm0 5.6h42.1v2.8H253v-2.8zm0 5.6h42.1v2.8H253v-2.8zm-.1 5.7H295v2.8h-42.1v-2.8zm0 5.6H295v2.8h-42.1v-2.8zM84.3 84.2h42.1V87H84.3v-2.8zm0 5.6h42.1v2.8H84.3v-2.8zm0 5.7h42.1v2.8H84.3v-2.8zm.1 5.6h42.1v2.8H84.4v-2.8zm-.1 5.6h42.1v2.8H84.3v-2.8zm0 5.6h42.1v2.8H84.3v-2.8zM0 42.1V0h2.8v42.1H0zm84.3 75.8h42.1v2.8H84.3v-2.8zM5.6 42.1V0h2.8v42.1H5.6zm78.7 81.5h42.1v2.8H84.3v-2.8zm-73-81.5V0h2.8v42.1h-2.8zm5.5 0V0h2.8v42.1h-2.8zm5.7 0V0h2.8v42.1h-2.8zm5.6 0V0h2.8v42.1h-2.8zm140.5 210.8h42.1v2.8h-42.1v-2.8zM33.7 42.1V0h2.8v42.1h-2.8zm134.9 216.4h42.1v2.8h-42.1v-2.8zM39.4 42.1V0h2.8v42.1h-2.8zm129.3 222h42.1v2.8h-42.1v-2.8zm0 5.7h42.1v2.8h-42.1v-2.8zm0 5.6h42.1v2.8h-42.1v-2.8zm-.1 5.6h42.1v2.8h-42.1V281zm0 5.6h42.1v2.8h-42.1v-2.8zm0 5.6h42.1v2.8h-42.1v-2.8zm-84.3-81.5v-42.1h2.8v42.1h-2.8zm5.6 0v-42.1h2.8v42.1h-2.8zm5.6 0v-42.1h2.8v42.1h-2.8zm5.7 0v-42.1h2.8v42.1h-2.8zm5.6 0v-42.1h2.8v42.1h-2.8zm5.7 0v-42.1h2.8v42.1h-2.8zm-28.2 42.1h42.1v2.8H84.3v-2.8zm33.7-42.1v-42.1h2.8v42.1H118zm-33.7 47.8h42.1v2.8H84.3v-2.8zm39.3-47.8v-42.1h2.8v42.1h-2.8zm-39.2 53.4h42.1v2.8H84.4v-2.8zm0 5.6h42.1v2.8H84.4v-2.8zm-.1 5.6h42.1v2.8H84.3v-2.8zm0 5.6h42.1v2.8H84.3v-2.8zm0 5.7h42.1v2.8H84.3v-2.8zm0 5.6h42.1v2.8H84.3v-2.8zM0 252.9h42.1v2.8H0v-2.8zm0 5.6h42.1v2.8H0v-2.8zm.1 5.6h42.1v2.8H.1v-2.8zm-.1 5.7h42.1v2.8H0v-2.8zm0 5.6h42.1v2.8H0v-2.8zm0 5.6h42.1v2.8H0V281zm0 5.6h42.1v2.8H0v-2.8zm0 5.6h42.1v2.8H0v-2.8z"/>
  <path class="st1" d="M253 42.1V0h2.8v42.1H253zm5.5 0V0h2.8v42.1h-2.8zm5.7 0V0h2.8v42.1h-2.8zm5.6 0V0h2.8v42.1h-2.8zm5.7 0V0h2.8v42.1h-2.8zm5.6 0V0h2.8v42.1h-2.8zm-70.3 126.5v-42.2h42.1v42.1h-42.1v.1zm75.9-126.5V0h2.8v42.1h-2.8zM126.5 84.2V42.1h42.1v42.1h-42.1zm165.8-42.1V0h2.8v42.1h-2.8zM126.5 168.6v-42.2h42.1v42.1h-42.1v.1zM42.1 84.2V42.1h42.1v42.1H42.1zm84.4 253v-42.1h42.1v42.1h-42.1zm-84.4-84.3v-42.1h42.1v42.1H42.1zm126.5-42.2v-42.1h2.8v42.1h-2.8zm5.7 0v-42.1h2.8v42.1h-2.8zm5.6 0v-42.1h2.8v42.1h-2.8zm5.7 0v-42.1h2.8v42.1h-2.8zm5.5 0v-42.1h2.8v42.1h-2.8zm5.6 0v-42.1h2.8v42.1h-2.8zm5.7 0v-42.1h2.8v42.1h-2.8zm5.6 0v-42.1h2.8v42.1H208z"/>
</svg>
