<svg id="Layer_1" xmlns="http://www.w3.org/2000/svg" viewBox="0 0 554.1 554.1">
  <style>
    .st0{fill:#19DCF5;} .st1{fill:#FFFFFF;}
  </style>
  <path class="st0" d="M554.1 514.3h-42.6v-2.8h42.6v2.8zm0 2.9h-42.6v2.8h42.6v-2.8zm0 5.7h-42.6v2.8h42.6v-2.8zm0 5.6h-42.6v2.8h42.6v-2.8zm0 5.7h-42.6v2.8h42.6v-2.8zm0 5.7h-42.6v2.8h42.6v-2.8zm0 5.7h-42.6v2.8h42.6v-2.8zm0 5.7h-42.6v2.8h42.6v-2.8zm-85.2 2.8v-42.6H466v42.6h2.9zm-5.7 0v-42.6h-2.8v42.6h2.8zm-5.7 0v-42.6h-2.8v42.6h2.8zm-5.7 0v-42.6H449v42.6h2.8zm-5.7 0v-42.6h-2.8v42.6h2.8zm-5.6 0v-42.6h-2.8v42.6h2.8zm-5.7 0v-42.6H432v42.6h2.8zm-5.7 0v-42.6h-2.8v42.6h2.8zm82.4-85.2h-42.6v42.6h42.6v-42.6zm-127.9 42.6H341v2.8h42.6v-2.8zm0 5.7H341v2.8h42.6v-2.8zm0 5.7H341v2.8h42.6v-2.8zm0 5.6H341v2.8h42.6v-2.8zm0 5.7H341v2.8h42.6v-2.8zm0 5.7H341v2.8h42.6v-2.8zm0 5.7H341v2.8h42.6v-2.8zm0 5.7H341v2.8h42.6v-2.8zm0-125.1H341v2.8h42.6v-2.8zm0 5.7H341v2.8h42.6v-2.8zm0 5.7H341v2.8h42.6v-2.8zm0 5.7H341v2.8h42.6v-2.8zm0 5.7H341v2.8h42.6V449zm0 5.7H341v2.8h42.6v-2.8zm0 5.7H341v2.8h42.6v-2.8zm0 5.6H341v2.8h42.6V466zm42.6-82.4h-42.6v42.6h42.6v-42.6zm42.7 0V341H466v42.6h2.9zm-5.7 0V341h-2.8v42.6h2.8zm-5.7 0V341h-2.8v42.6h2.8zm-5.7 0V341H449v42.6h2.8zm-5.7 0V341h-2.8v42.6h2.8zm-5.6 0V341h-2.8v42.6h2.8zm-5.7 0V341H432v42.6h2.8zm-5.7 0V341h-2.8v42.6h2.8zm-173.3 85.3h-42.6v42.6h42.6v-42.6zm42.6 0v-42.6h-2.8v42.6h2.8zm-5.7 0v-42.6h-2.8v42.6h2.8zm-5.7 0v-42.6h-2.8v42.6h2.8zm-5.7 0v-42.6h-2.8v42.6h2.8zm-5.7 0v-42.6h-2.8v42.6h2.8zm-5.6 0v-42.6h-2.8v42.6h2.8zm-5.7 0v-42.6h-2.8v42.6h2.8zm-5.7 0v-42.6h-2.8v42.6h2.8zm39.8-85.3V341h-2.8v42.6h2.8zm-5.7 0V341h-2.8v42.6h2.8zm-5.7 0V341h-2.8v42.6h2.8zm-5.7 0V341h-2.8v42.6h2.8zm-5.7 0V341h-2.8v42.6h2.8zm-5.6 0V341h-2.8v42.6h2.8zm-5.7 0V341h-2.8v42.6h2.8zm-5.7 0V341h-2.8v42.6h2.8zm82.4-85.2h-42.6V341H341v-42.6zm0-42.6h-42.6v2.8H341v-2.8zm0 5.6h-42.6v2.8H341v-2.8zm0 5.7h-42.6v2.8H341v-2.8zm0 5.7h-42.6v2.8H341v-2.8zm0 5.7h-42.6v2.8H341v-2.8zm0 5.7h-42.6v2.8H341v-2.8zm0 5.7h-42.6v2.8H341v-2.8zm0 5.6h-42.6v2.8H341v-2.8zm-85.2 2.9v-42.6H253v42.6h2.8zm-5.7 0v-42.6h-2.8v42.6h2.8zm-5.7 0v-42.6h-2.8v42.6h2.8zm-5.7 0v-42.6h-2.8v42.6h2.8zm-5.7 0v-42.6h-2.8v42.6h2.8zm-5.7 0v-42.6h-2.8v42.6h2.8zm-5.7 0v-42.6h-2.8v42.6h2.8zm-5.6 0v-42.6h-2.8v42.6h2.8zm82.4-85.3h-42.6v42.6h42.6v-42.6zm-127.9 42.7h-42.6v2.8h42.6v-2.8zm0 5.6h-42.6v2.8h42.6v-2.8zm0 5.7h-42.6v2.8h42.6v-2.8zm0 5.7h-42.6v2.8h42.6v-2.8zm0 5.7h-42.6v2.8h42.6v-2.8zm0 5.7h-42.6v2.8h42.6v-2.8zm0 5.7h-42.6v2.8h42.6v-2.8zm0 5.6h-42.6v2.8h42.6v-2.8zm0-125h-42.6v2.8h42.6v-2.8zm0 5.7h-42.6v2.8h42.6v-2.8zm0 5.7h-42.6v2.8h42.6v-2.8zm0 5.7h-42.6v2.8h42.6v-2.8zm0 5.6h-42.6v2.8h42.6v-2.8zm0 5.7h-42.6v2.8h42.6v-2.8zm0 5.7h-42.6v2.8h42.6v-2.8zm0 5.7h-42.6v2.8h42.6v-2.8zm42.6-82.4h-42.6v42.6h42.6v-42.6zm42.7 0V85.2H253v42.6h2.8zm-5.7 0V85.2h-2.8v42.6h2.8zm-5.7 0V85.2h-2.8v42.6h2.8zm-5.7 0V85.2h-2.8v42.6h2.8zm-5.7 0V85.2h-2.8v42.6h2.8zm-5.7 0V85.2h-2.8v42.6h2.8zm-5.7 0V85.2h-2.8v42.6h2.8zm-5.6 0V85.2h-2.8v42.6h2.8zM42.6 213.1H0v42.6h42.6v-42.6zm42.6 0v-42.6h-2.8v42.6h2.8zm-5.6 0v-42.6h-2.8v42.6h2.8zm-5.7 0v-42.6H71v42.6h2.9zm-5.7 0v-42.6h-2.8v42.6h2.8zm-5.7 0v-42.6h-2.8v42.6h2.8zm-5.7 0v-42.6H54v42.6h2.8zm-5.6 0v-42.6h-2.8v42.6h2.8zm-5.7 0v-42.6h-2.8v42.6h2.8zm39.7-85.2V85.2h-2.8v42.6h2.8zm-5.6 0V85.2h-2.8v42.6h2.8zm-5.7 0V85.2H71v42.6h2.9zm-5.7 0V85.2h-2.8v42.6h2.8zm-5.7 0V85.2h-2.8v42.6h2.8zm-5.7 0V85.2H54v42.6h2.8zm-5.6 0V85.2h-2.8v42.6h2.8zm-5.7 0V85.2h-2.8v42.6h2.8zm82.4-85.3H85.2v42.6h42.6V42.6z"/>
  <path class="st1" d="M426.2 511.5h-42.6v-42.6h42.6v42.6zm85.3-127.9h-42.6v42.6h42.6v-42.6zm42.6-42.6h-42.6v2.8h42.6V341zm0 5.7h-42.6v2.8h42.6v-2.8zm0 5.7h-42.6v2.8h42.6v-2.8zm0 5.6h-42.6v2.8h42.6V358zm0 5.7h-42.6v2.8h42.6v-2.8zm0 5.7h-42.6v2.8h42.6v-2.8zm0 5.7h-42.6v2.8h42.6v-2.8zm0 5.7h-42.6v2.8h42.6v-2.8zM298.4 554.1v-42.6h-2.8v42.6h2.8zm-5.7 0v-42.6h-2.8v42.6h2.8zm-5.7 0v-42.6h-2.8v42.6h2.8zm-5.7 0v-42.6h-2.8v42.6h2.8zm-5.7 0v-42.6h-2.8v42.6h2.8zm-5.6 0v-42.6h-2.8v42.6h2.8zm-5.7 0v-42.6h-2.8v42.6h2.8zm-5.7 0v-42.6h-2.8v42.6h2.8zm252.9-255.7h-42.6V341h42.6v-42.6zm42.6-42.6h-42.6v2.8h42.6v-2.8zm0 5.6h-42.6v2.8h42.6v-2.8zm0 5.7h-42.6v2.8h42.6v-2.8zm0 5.7h-42.6v2.8h42.6v-2.8zm0 5.7h-42.6v2.8h42.6v-2.8zm0 5.7h-42.6v2.8h42.6v-2.8zm0 5.7h-42.6v2.8h42.6v-2.8zm0 5.6h-42.6v2.8h42.6v-2.8zM341 383.6h-42.6v42.6H341v-42.6zm42.6-42.6H341v2.8h42.6V341zm0 5.7H341v2.8h42.6v-2.8zm0 5.7H341v2.8h42.6v-2.8zm0 5.6H341v2.8h42.6V358zm0 5.7H341v2.8h42.6v-2.8zm0 5.7H341v2.8h42.6v-2.8zm0 5.7H341v2.8h42.6v-2.8zm0 5.7H341v2.8h42.6v-2.8zm-127.8 2.8h-42.6v42.6h42.6v-42.6zm0-85.2h-42.6V341h42.6v-42.6zm42.6 0v-42.6h-2.8v42.6h2.8zm-5.7 0v-42.6h-2.8v42.6h2.8zm-5.7 0v-42.6h-2.8v42.6h2.8zm-5.7 0v-42.6h-2.8v42.6h2.8zm-5.7 0v-42.6h-2.8v42.6h2.8zm-5.6 0v-42.6h-2.8v42.6h2.8zm-5.7 0v-42.6h-2.8v42.6h2.8zm-5.7 0v-42.6h-2.8v42.6h2.8zm-45.5-85.3h-42.6v42.6h42.6v-42.6zm85.3-85.2h-42.6v42.6h42.6v-42.6zM341 85.2h-42.6V88H341v-2.8zm0 5.7h-42.6v2.8H341v-2.8zm0 5.7h-42.6v2.8H341v-2.8zm0 5.7h-42.6v2.8H341v-2.8zm0 5.7h-42.6v2.8H341V108zm0 5.7h-42.6v2.8H341v-2.8zm0 5.6h-42.6v2.8H341v-2.8zm0 5.7h-42.6v2.8H341V125zM85.2 298.4v-42.6h-2.8v42.6h2.8zm-5.6 0v-42.6h-2.8v42.6h2.8zm-5.7 0v-42.6H71v42.6h2.9zm-5.7 0v-42.6h-2.8v42.6h2.8zm-5.7 0v-42.6h-2.8v42.6h2.8zm-5.7 0v-42.6H54v42.6h2.8zm-5.6 0v-42.6h-2.8v42.6h2.8zm-5.7 0v-42.6h-2.8v42.6h2.8zM298.4 42.6h-42.6v42.6h42.6V42.6zM341 0h-42.6v2.8H341V0zm0 5.7h-42.6v2.8H341V5.7zm0 5.7h-42.6v2.8H341v-2.8zm0 5.6h-42.6v2.8H341V17zm0 5.7h-42.6v2.8H341v-2.8zm0 5.7h-42.6v2.8H341v-2.8zm0 5.7h-42.6v2.8H341v-2.8zm0 5.7h-42.6v2.8H341v-2.8zm-213.1 88.1H85.2v42.6h42.6v-42.6zm42.6-42.7h-42.6V88h42.6v-2.8zm0 5.7h-42.6v2.8h42.6v-2.8zm0 5.7h-42.6v2.8h42.6v-2.8zm0 5.7h-42.6v2.8h42.6v-2.8zm0 5.7h-42.6v2.8h42.6V108zm0 5.7h-42.6v2.8h42.6v-2.8zm0 5.6h-42.6v2.8h42.6v-2.8zm0 5.7h-42.6v2.8h42.6V125zm-127.9 2.9H0v42.6h42.6v-42.6zm0-85.3H0v42.6h42.6V42.6zm42.6 0V0h-2.8v42.6h2.8zm-5.6 0V0h-2.8v42.6h2.8zm-5.7 0V0H71v42.6h2.9zm-5.7 0V0h-2.8v42.6h2.8zm-5.7 0V0h-2.8v42.6h2.8zm-5.7 0V0H54v42.6h2.8zm-5.6 0V0h-2.8v42.6h2.8zm-5.7 0V0h-2.8v42.6h2.8z"/>
</svg>
