<?xml version="1.0" encoding="utf-8"?>
<!-- Generator: Adobe Illustrator 20.1.0, SVG Export Plug-In . SVG Version: 6.00 Build 0)  -->
<svg version="1.1" id="Layer_1" xmlns="http://www.w3.org/2000/svg" xmlns:xlink="http://www.w3.org/1999/xlink" x="0px" y="0px"
	 viewBox="0 0 855.9 326.8" style="enable-background:new 0 0 855.9 326.8;" xml:space="preserve">
<style type="text/css">
	.st0{fill:none;stroke:#19DCF5;stroke-width:3;}
	.st1{fill:#222222;}
</style>
<path id="path-6" class="st0" d="M654.3,73.8c-4.3,204.2-369.4,219.3-426.9,58"/>
<path id="path-10" class="st0" d="M119.1,72.8c0,0,69.5,263.6,267.5,121"/>
<path id="path-14" class="st0" d="M226.1,72.8c0,0,0.3,1,0.9,3.3c3.4,56.1,106.6,346.5,318.7,178.2"/>
<path id="path-15" class="st0" d="M63.9,133c0,0,121.4,147.5,266.4,0"/>
<path id="path-11" class="st0" d="M172,72.8c0,0,49.4,47.8,108.4,0"/>
<path id="path-6-2" class="st0" d="M547.3,73.8C543.1,278,392.6,386.9,278.3,253"/>
<path id="path-6-3" class="st0" d="M707.7,133c-2.2,3.3-55.7,74.7-161,61.1"/>
<path id="path-8" class="st0" d="M760.3,73.8c0,0-62.8,159.3-213.4,59.5"/>
<path id="path-9" class="st0" d="M815.3,133c0,0-50-12.5-54.7-60"/>
<path id="path-12" class="st0" d="M440.1,72.8c0,0-77.3,82.2-161.1,0"/>
<path id="path-6-4" class="st0" d="M546.9,192c-26.1,89.4-209.7,104.8-213.6-58.9"/>
<path id="path-13" class="st0" d="M707.7,254.7c0,0-238.9,25.1-268-181.6"/>
<path id="path-16" class="st0" d="M815.3,192.9c0,0-237.3,126.2-428.2-60.1"/>
<path id="group-245" class="st1" d="M74.8,0l-9.3,9.3L56.2,0l-2.8,2.8l9.3,9.3l-9.3,9.3l2.8,2.8l9.3-9.3l9.3,9.3l2.8-2.8L68.3,12
	l9.3-9.3L74.8,0z M10.1,23.9H14V14h9.9v-3.9H14V0.2h-3.9v9.9H0.2V14h9.9C10.1,14,10.1,23.9,10.1,23.9z M181.8,0l-9.3,9.3L163.2,0
	l-2.8,2.8l9.3,9.3l-9.3,9.3l2.8,2.8l9.3-9.3l9.3,9.3l2.8-2.8l-9.3-9.3l9.3-9.3C184.6,2.8,181.8,0,181.8,0z M117.1,23.9h3.9V14h9.9
	v-3.9H121V0.2h-3.9v9.9h-9.9V14h9.9C117.1,14,117.1,23.9,117.1,23.9z M224,23.9h3.9V14h9.9v-3.9h-9.9V0.2H224v9.9h-9.9V14h9.9V23.9z
	 M63.6,60.7v9.9h-9.9v3.9h9.9v9.9h4v-9.9h9.9v-3.9h-9.9v-9.9C67.6,60.7,63.6,60.7,63.6,60.7z M21.3,60.5L12,69.8l-9.3-9.3L0,63.3
	l9.3,9.3L0,81.8l2.8,2.8l9.3-9.3l9.3,9.3l2.8-2.8l-9.3-9.3l9.3-9.3C24.2,63.2,21.3,60.5,21.3,60.5z M170.5,60.7v9.9h-9.9v3.9h9.9
	v9.9h3.9v-9.9h9.9v-3.9h-9.9v-9.9C174.4,60.7,170.5,60.7,170.5,60.7z M128.3,60.5l-9.3,9.3l-9.3-9.3l-2.8,2.8l9.3,9.3l-9.3,9.3
	l2.8,2.8l9.3-9.3l9.3,9.3l2.8-2.8l-9.3-9.3l9.3-9.3C131.1,63.3,128.3,60.5,128.3,60.5z M235.3,60.5l-9.3,9.3l-9.3-9.3l-2.8,2.8
	l9.3,9.3l-9.3,9.3l2.8,2.8l9.3-9.3l9.3,9.3l2.8-2.8l-9.3-9.3l9.3-9.3C238.1,63.3,235.3,60.5,235.3,60.5z M74.8,121.1l-9.3,9.3
	l-9.3-9.3l-2.8,2.8l9.3,9.3l-9.3,9.3l2.8,2.8l9.3-9.3l9.3,9.3l2.8-2.8l-9.3-9.3l9.3-9.3C77.6,123.9,74.8,121.1,74.8,121.1z
	 M10.1,121.2v9.9H0.2v3.9h9.9v9.9H14V135h9.9v-3.9H14v-9.9C14,121.2,10.1,121.2,10.1,121.2z M181.8,121.1l-9.3,9.3l-9.3-9.3
	l-2.8,2.8l9.3,9.3l-9.3,9.3l2.8,2.8l9.3-9.3l9.3,9.3l2.8-2.8l-9.3-9.3l9.3-9.3C184.6,123.9,181.8,121.1,181.8,121.1z M117.1,121.2
	v9.9h-9.9v3.9h9.9v9.9h3.9V135h9.9v-3.9H121v-9.9C121,121.2,117.1,121.2,117.1,121.2z M224,121.2v9.9h-9.9v3.9h9.9v9.9h3.9V135h9.9
	v-3.9h-9.9v-9.9C227.9,121.2,224,121.2,224,121.2z M63.6,181.8v9.9h-9.9v3.9h9.9v9.9h4v-9.9h9.9v-3.9h-9.9v-9.9H63.6z M21.3,181.6
	l-9.3,9.3l-9.3-9.3L0,184.4l9.3,9.3L0,202.9l2.8,2.8l9.3-9.3l9.3,9.3l2.8-2.8l-9.3-9.3l9.3-9.3L21.3,181.6z M170.5,181.8v9.9h-9.9
	v3.9h9.9v9.9h3.9v-9.9h9.9v-3.9h-9.9v-9.9H170.5z M128.3,181.6l-9.3,9.3l-9.3-9.3l-2.8,2.8l9.3,9.3l-9.3,9.3l2.8,2.8l9.3-9.3
	l9.3,9.3l2.8-2.8l-9.3-9.3l9.3-9.3L128.3,181.6z M235.3,181.6l-9.3,9.3l-9.3-9.3l-2.8,2.8l9.3,9.3l-9.3,9.3l2.8,2.8l9.3-9.3l9.3,9.3
	l2.8-2.8l-9.3-9.3l9.3-9.3L235.3,181.6z M74.8,242.1l-9.3,9.3l-9.3-9.3l-2.8,2.8l9.3,9.3l-9.3,9.3l2.8,2.8l9.3-9.3l9.3,9.3l2.8-2.8
	l-9.3-9.3l9.3-9.3L74.8,242.1L74.8,242.1z M10.1,242.3v9.9H0.2v3.9h9.9v9.9H14v-9.9h9.9v-3.9H14v-9.9L10.1,242.3L10.1,242.3z
	 M181.8,242.1l-9.3,9.3l-9.3-9.3l-2.8,2.8l9.3,9.3l-9.3,9.3l2.8,2.8l9.3-9.3l9.3,9.3l2.8-2.8l-9.3-9.3l9.3-9.3L181.8,242.1
	L181.8,242.1z M117.1,242.3v9.9h-9.9v3.9h9.9v9.9h3.9v-9.9h9.9v-3.9H121v-9.9L117.1,242.3L117.1,242.3z M224,242.3v9.9h-9.9v3.9h9.9
	v9.9h3.9v-9.9h9.9v-3.9h-9.9v-9.9L224,242.3L224,242.3z M63.6,302.9v9.9h-9.9v3.9h9.9v9.9h4v-9.9h9.9v-3.9h-9.9v-9.9H63.6z
	 M21.3,302.7L12,312l-9.3-9.3L0,305.4l9.3,9.3L0,324l2.8,2.8l9.3-9.3l9.3,9.3l2.8-2.8l-9.3-9.3l9.3-9.3L21.3,302.7L21.3,302.7z
	 M170.5,302.9v9.9h-9.9v3.9h9.9v9.9h3.9v-9.9h9.9v-3.9h-9.9v-9.9H170.5z M128.3,302.7L119,312l-9.3-9.3l-2.8,2.8l9.3,9.3L107,324
	l2.8,2.8l9.3-9.3l9.3,9.3l2.8-2.8l-9.3-9.3l9.3-9.3L128.3,302.7L128.3,302.7z M235.3,302.7L226,312l-9.3-9.3l-2.8,2.8l9.3,9.3
	l-9.3,9.3l2.8,2.8l9.3-9.3l9.3,9.3l2.8-2.8l-9.3-9.3l9.3-9.3L235.3,302.7L235.3,302.7z M288.7,0l-9.3,9.3L270.2,0l-2.8,2.8l9.3,9.3
	l-9.3,9.3l2.8,2.8l9.3-9.3l9.3,9.3l2.8-2.8l-9.3-9.3l9.3-9.3L288.7,0L288.7,0z M395.7,0l-9.3,9.3L377.2,0l-2.8,2.8l9.3,9.3l-9.3,9.3
	l2.8,2.8l9.3-9.3l9.3,9.3l2.8-2.8l-9.3-9.3l9.3-9.3L395.7,0L395.7,0z M331,23.9h3.9V14h9.9v-3.9h-9.9V0.2H331v9.9h-9.9V14h9.9V23.9z
	 M502.7,0l-9.3,9.3L484.1,0l-2.8,2.8l9.3,9.3l-9.3,9.3l2.8,2.8l9.3-9.3l9.3,9.3l2.8-2.8l-9.3-9.3l9.3-9.3C505.5,2.8,502.7,0,502.7,0
	z M437.9,23.9h3.9V14h9.9v-3.9h-9.9V0.2h-3.9v9.9H428V14h9.9L437.9,23.9L437.9,23.9z M609.6,0l-9.3,9.3L591,0l-2.8,2.8l9.3,9.3
	l-9.3,9.3l2.8,2.8l9.3-9.3l9.3,9.3l2.8-2.8l-9.3-9.3l9.3-9.3C612.4,2.8,609.6,0,609.6,0z M544.9,23.9h3.9V14h9.9v-3.9h-9.9V0.2h-3.9
	v9.9H535V14h9.9L544.9,23.9L544.9,23.9z M716.6,0l-9.3,9.3L698,0l-2.8,2.8l9.3,9.3l-9.3,9.3l2.8,2.8l9.3-9.3l9.3,9.3l2.8-2.8
	l-9.3-9.3l9.3-9.3C719.4,2.8,716.6,0,716.6,0z M651.9,23.9h3.9V14h9.9v-3.9h-9.9V0.2h-3.9v9.9H642V14h9.9L651.9,23.9L651.9,23.9z
	 M826.3,2.8L823.5,0l-9.3,9.3L805,0l-2.8,2.8l9.3,9.3l-9.3,9.3l2.8,2.8l9.3-9.3l9.3,9.3l2.8-2.8L817,12C817,12,826.3,2.8,826.3,2.8z
	 M758.8,23.9h3.9V14h9.9v-3.9h-9.9V0.2h-3.9v9.9h-9.9V14h9.9V23.9z M277.5,60.7v9.9h-9.9v3.9h9.9v9.9h3.9v-9.9h9.9v-3.9h-9.9v-9.9
	C281.4,60.7,277.5,60.7,277.5,60.7z M384.5,60.7v9.9h-9.9v3.9h9.9v9.9h3.9v-9.9h9.9v-3.9h-9.9v-9.9
	C388.4,60.7,384.5,60.7,384.5,60.7z M342.2,60.5l-9.3,9.3l-9.3-9.3l-2.8,2.8l9.3,9.3l-9.3,9.3l2.8,2.8l9.3-9.3l9.3,9.3l2.8-2.8
	l-9.3-9.3l9.3-9.3C345,63.3,342.2,60.5,342.2,60.5z M491.4,60.7v9.9h-9.9v3.9h9.9v9.9h3.9v-9.9h9.9v-3.9h-9.9v-9.9
	C495.3,60.7,491.4,60.7,491.4,60.7z M449.2,60.5l-9.3,9.3l-9.3-9.3l-2.8,2.8l9.3,9.3l-9.3,9.3l2.8,2.8l9.3-9.3l9.3,9.3l2.8-2.8
	l-9.3-9.3l9.3-9.3C452,63.3,449.2,60.5,449.2,60.5z M598.4,60.7v9.9h-9.9v3.9h9.9v9.9h3.9v-9.9h9.9v-3.9h-9.9v-9.9
	C602.3,60.7,598.4,60.7,598.4,60.7z M556.1,60.5l-9.3,9.3l-9.3-9.3l-2.8,2.8l9.3,9.3l-9.3,9.3l2.8,2.8l9.3-9.3l9.3,9.3l2.8-2.8
	l-9.3-9.3l9.3-9.3C558.9,63.3,556.1,60.5,556.1,60.5z M705.3,60.7v9.9h-9.9v3.9h9.9v9.9h3.9v-9.9h9.9v-3.9h-9.9v-9.9
	C709.2,60.7,705.3,60.7,705.3,60.7z M663.1,60.5l-9.3,9.3l-9.3-9.3l-2.8,2.8l9.3,9.3l-9.3,9.3l2.8,2.8l9.3-9.3l9.3,9.3l2.8-2.8
	l-9.3-9.3l9.3-9.3C665.9,63.3,663.1,60.5,663.1,60.5z M812.3,60.7v9.9h-9.9v3.9h9.9v9.9h3.9v-9.9h9.9v-3.9h-9.9v-9.9
	C816.2,60.7,812.3,60.7,812.3,60.7z M770.1,60.5l-9.3,9.3l-9.3-9.3l-2.8,2.8l9.3,9.3l-9.3,9.3l2.8,2.8l9.3-9.3l9.3,9.3l2.8-2.8
	l-9.3-9.3l9.3-9.3C772.9,63.3,770.1,60.5,770.1,60.5z M288.7,121.1l-9.3,9.3l-9.3-9.3l-2.8,2.8l9.3,9.3l-9.3,9.3l2.8,2.8l9.3-9.3
	l9.3,9.3l2.8-2.8l-9.3-9.3l9.3-9.3C291.5,123.9,288.7,121.1,288.7,121.1z M395.7,121.1l-9.3,9.3l-9.3-9.3l-2.8,2.8l9.3,9.3l-9.3,9.3
	l2.8,2.8l9.3-9.3l9.3,9.3l2.8-2.8l-9.3-9.3l9.3-9.3C398.5,123.9,395.7,121.1,395.7,121.1z M331,121.2v9.9h-9.9v3.9h9.9v9.9h3.9V135
	h9.9v-3.9h-9.9v-9.9L331,121.2L331,121.2z M502.7,121.1l-9.3,9.3l-9.3-9.3l-2.8,2.8l9.3,9.3l-9.3,9.3l2.8,2.8l9.3-9.3l9.3,9.3
	l2.8-2.8l-9.3-9.3l9.3-9.3C505.5,123.9,502.7,121.1,502.7,121.1z M437.9,121.2v9.9H428v3.9h9.9v9.9h3.9V135h9.9v-3.9h-9.9v-9.9
	L437.9,121.2L437.9,121.2z M609.6,121.1l-9.3,9.3l-9.3-9.3l-2.8,2.8l9.3,9.3l-9.3,9.3l2.8,2.8l9.3-9.3l9.3,9.3l2.8-2.8l-9.3-9.3
	l9.3-9.3C612.4,123.9,609.6,121.1,609.6,121.1z M544.9,121.2v9.9H535v3.9h9.9v9.9h3.9V135h9.9v-3.9h-9.9v-9.9L544.9,121.2
	L544.9,121.2z M716.6,121.1l-9.3,9.3l-9.3-9.3l-2.8,2.8l9.3,9.3l-9.3,9.3l2.8,2.8l9.3-9.3l9.3,9.3l2.8-2.8l-9.3-9.3l9.3-9.3
	C719.4,123.9,716.6,121.1,716.6,121.1z M651.9,121.2v9.9H642v3.9h9.9v9.9h3.9V135h9.9v-3.9h-9.9v-9.9L651.9,121.2L651.9,121.2z
	 M823.5,121.1l-9.3,9.3l-9.3-9.3l-2.8,2.8l9.3,9.3l-9.3,9.3l2.8,2.8l9.3-9.3l9.3,9.3l2.8-2.8l-9.3-9.3l9.3-9.3
	C826.3,123.9,823.5,121.1,823.5,121.1z M758.8,121.2v9.9h-9.9v3.9h9.9v9.9h3.9V135h9.9v-3.9h-9.9v-9.9
	C762.7,121.2,758.8,121.2,758.8,121.2z M277.5,181.8v9.9h-9.9v3.9h9.9v9.9h3.9v-9.9h9.9v-3.9h-9.9v-9.9H277.5z M384.5,181.8v9.9
	h-9.9v3.9h9.9v9.9h3.9v-9.9h9.9v-3.9h-9.9v-9.9H384.5z M342.2,181.6l-9.3,9.3l-9.3-9.3l-2.8,2.8l9.3,9.3l-9.3,9.3l2.8,2.8l9.3-9.3
	l9.3,9.3l2.8-2.8l-9.3-9.3l9.3-9.3L342.2,181.6z M491.4,181.8v9.9h-9.9v3.9h9.9v9.9h3.9v-9.9h9.9v-3.9h-9.9v-9.9H491.4z
	 M449.2,181.6l-9.3,9.3l-9.3-9.3l-2.8,2.8l9.3,9.3l-9.3,9.3l2.8,2.8l9.3-9.3l9.3,9.3l2.8-2.8l-9.3-9.3l9.3-9.3L449.2,181.6z
	 M598.4,181.8v9.9h-9.9v3.9h9.9v9.9h3.9v-9.9h9.9v-3.9h-9.9v-9.9H598.4z M556.1,181.6l-9.3,9.3l-9.3-9.3l-2.8,2.8l9.3,9.3l-9.3,9.3
	l2.8,2.8l9.3-9.3l9.3,9.3l2.8-2.8l-9.3-9.3l9.3-9.3L556.1,181.6z M705.3,181.8v9.9h-9.9v3.9h9.9v9.9h3.9v-9.9h9.9v-3.9h-9.9v-9.9
	H705.3z M663.1,181.6l-9.3,9.3l-9.3-9.3l-2.8,2.8l9.3,9.3l-9.3,9.3l2.8,2.8l9.3-9.3l9.3,9.3l2.8-2.8l-9.3-9.3l9.3-9.3L663.1,181.6z
	 M812.3,181.8v9.9h-9.9v3.9h9.9v9.9h3.9v-9.9h9.9v-3.9h-9.9v-9.9H812.3z M770.1,181.6l-9.3,9.3l-9.3-9.3l-2.8,2.8l9.3,9.3l-9.3,9.3
	l2.8,2.8l9.3-9.3l9.3,9.3l2.8-2.8l-9.3-9.3l9.3-9.3L770.1,181.6z M288.7,242.1l-9.3,9.3l-9.3-9.3l-2.8,2.8l9.3,9.3l-9.3,9.3l2.8,2.8
	l9.3-9.3l9.3,9.3l2.8-2.8l-9.3-9.3l9.3-9.3L288.7,242.1z M395.7,242.1l-9.3,9.3l-9.3-9.3l-2.8,2.8l9.3,9.3l-9.3,9.3l2.8,2.8l9.3-9.3
	l9.3,9.3l2.8-2.8l-9.3-9.3l9.3-9.3L395.7,242.1z M331,242.3v9.9h-9.9v3.9h9.9v9.9h3.9v-9.9h9.9v-3.9h-9.9v-9.9H331L331,242.3z
	 M502.7,242.1l-9.3,9.3l-9.3-9.3l-2.8,2.8l9.3,9.3l-9.3,9.3l2.8,2.8l9.3-9.3l9.3,9.3l2.8-2.8l-9.3-9.3l9.3-9.3L502.7,242.1z
	 M437.9,242.3v9.9H428v3.9h9.9v9.9h3.9v-9.9h9.9v-3.9h-9.9v-9.9H437.9L437.9,242.3z M609.6,242.1l-9.3,9.3l-9.3-9.3l-2.8,2.8
	l9.3,9.3l-9.3,9.3l2.8,2.8l9.3-9.3l9.3,9.3l2.8-2.8l-9.3-9.3l9.3-9.3L609.6,242.1z M544.9,242.3v9.9H535v3.9h9.9v9.9h3.9v-9.9h9.9
	v-3.9h-9.9v-9.9H544.9L544.9,242.3z M716.6,242.1l-9.3,9.3l-9.3-9.3l-2.8,2.8l9.3,9.3l-9.3,9.3l2.8,2.8l9.3-9.3l9.3,9.3l2.8-2.8
	l-9.3-9.3l9.3-9.3L716.6,242.1z M651.9,242.3v9.9H642v3.9h9.9v9.9h3.9v-9.9h9.9v-3.9h-9.9v-9.9H651.9L651.9,242.3z M823.5,242.1
	l-9.3,9.3l-9.3-9.3l-2.8,2.8l9.3,9.3l-9.3,9.3l2.8,2.8l9.3-9.3l9.3,9.3l2.8-2.8l-9.3-9.3l9.3-9.3L823.5,242.1z M758.8,242.3v9.9
	h-9.9v3.9h9.9v9.9h3.9v-9.9h9.9v-3.9h-9.9v-9.9H758.8z M277.5,302.9v9.9h-9.9v3.9h9.9v9.9h3.9v-9.9h9.9v-3.9h-9.9v-9.9H277.5z
	 M384.5,302.9v9.9h-9.9v3.9h9.9v9.9h3.9v-9.9h9.9v-3.9h-9.9v-9.9H384.5z M342.2,302.7l-9.3,9.3l-9.3-9.3l-2.8,2.8l9.3,9.3l-9.3,9.3
	l2.8,2.8l9.3-9.3l9.3,9.3l2.8-2.8l-9.3-9.3l9.3-9.3L342.2,302.7z M491.4,302.9v9.9h-9.9v3.9h9.9v9.9h3.9v-9.9h9.9v-3.9h-9.9v-9.9
	H491.4z M449.2,302.7l-9.3,9.3l-9.3-9.3l-2.8,2.8l9.3,9.3l-9.3,9.3l2.8,2.8l9.3-9.3l9.3,9.3l2.8-2.8l-9.3-9.3l9.3-9.3L449.2,302.7z
	 M598.4,302.9v9.9h-9.9v3.9h9.9v9.9h3.9v-9.9h9.9v-3.9h-9.9v-9.9H598.4z M556.1,302.7l-9.3,9.3l-9.3-9.3l-2.8,2.8l9.3,9.3l-9.3,9.3
	l2.8,2.8l9.3-9.3l9.3,9.3l2.8-2.8l-9.3-9.3l9.3-9.3L556.1,302.7z M705.3,302.9v9.9h-9.9v3.9h9.9v9.9h3.9v-9.9h9.9v-3.9h-9.9v-9.9
	H705.3z M663.1,302.7l-9.3,9.3l-9.3-9.3l-2.8,2.8l9.3,9.3l-9.3,9.3l2.8,2.8l9.3-9.3l9.3,9.3l2.8-2.8l-9.3-9.3l9.3-9.3L663.1,302.7z
	 M812.3,302.9v9.9h-9.9v3.9h9.9v9.9h3.9v-9.9h9.9v-3.9h-9.9v-9.9H812.3z M770.1,302.7l-9.3,9.3l-9.3-9.3l-2.8,2.8l9.3,9.3l-9.3,9.3
	l2.8,2.8l9.3-9.3l9.3,9.3l2.8-2.8l-9.3-9.3l9.3-9.3L770.1,302.7z"/>
</svg>
