<svg id="Layer_1" xmlns="http://www.w3.org/2000/svg" viewBox="0 0 682 298.4">
  <style>
    .st0{fill:#FFFFFF;} .st1{fill:#19DCF5;}
  </style>
  <path class="st0" d="M682 258.6h-42.6v-2.8H682v2.8zm0 2.8h-42.6v2.8H682v-2.8zm0 5.7h-42.6v2.8H682v-2.8zm0 5.7h-42.6v2.8H682v-2.8zm0 5.7h-42.6v2.8H682v-2.8zm0 5.7h-42.6v2.8H682v-2.8zm0 5.7h-42.6v2.8H682v-2.8zm0 5.6h-42.6v2.8H682v-2.8zm-85.2 2.9v-42.6H594v42.6h2.8zm-5.7 0v-42.6h-2.8v42.6h2.8zm-5.7 0v-42.6h-2.8v42.6h2.8zm-5.7 0v-42.6h-2.8v42.6h2.8zm-5.7 0v-42.6h-2.8v42.6h2.8zm-5.7 0v-42.6h-2.8v42.6h2.8zm-5.6 0v-42.6h-2.8v42.6h2.8zm-5.7 0v-42.6h-2.8v42.6h2.8zm82.4-85.3h-42.6v42.6h42.6v-42.6zm-127.9 42.7h-42.6v2.8h42.6v-2.8zm0 5.6h-42.6v2.8h42.6v-2.8zm0 5.7h-42.6v2.8h42.6v-2.8zm0 5.7h-42.6v2.8h42.6v-2.8zm0 5.7h-42.6v2.8h42.6v-2.8zm0 5.7h-42.6v2.8h42.6v-2.8zm0 5.7h-42.6v2.8h42.6v-2.8zm0 5.6h-42.6v2.8h42.6v-2.8zm0-125h-42.6v2.8h42.6v-2.8zm0 5.7h-42.6v2.8h42.6v-2.8zm0 5.7h-42.6v2.8h42.6v-2.8zm0 5.7h-42.6v2.8h42.6v-2.8zm0 5.6h-42.6v2.8h42.6v-2.8zm0 5.7h-42.6v2.8h42.6v-2.8zm0 5.7h-42.6v2.8h42.6v-2.8zm0 5.7h-42.6v2.8h42.6v-2.8zm42.6-82.4h-42.6v42.6h42.6v-42.6zm42.7 0V85.2H594v42.6h2.8zm-5.7 0V85.2h-2.8v42.6h2.8zm-5.7 0V85.2h-2.8v42.6h2.8zm-5.7 0V85.2h-2.8v42.6h2.8zm-5.7 0V85.2h-2.8v42.6h2.8zm-5.7 0V85.2h-2.8v42.6h2.8zm-5.6 0V85.2h-2.8v42.6h2.8zm-5.7 0V85.2h-2.8v42.6h2.8zm-173.4 85.2H341v42.6h42.6v-42.6zm42.6 0v-42.6h-2.8v42.6h2.8zm-5.6 0v-42.6h-2.8v42.6h2.8zm-5.7 0v-42.6H412v42.6h2.9zm-5.7 0v-42.6h-2.8v42.6h2.8zm-5.7 0v-42.6h-2.8v42.6h2.8zm-5.7 0v-42.6H395v42.6h2.8zm-5.7 0v-42.6h-2.8v42.6h2.8zm-5.6 0v-42.6h-2.8v42.6h2.8zm39.7-85.2V85.2h-2.8v42.6h2.8zm-5.6 0V85.2h-2.8v42.6h2.8zm-5.7 0V85.2H412v42.6h2.9zm-5.7 0V85.2h-2.8v42.6h2.8zm-5.7 0V85.2h-2.8v42.6h2.8zm-5.7 0V85.2H395v42.6h2.8zm-5.7 0V85.2h-2.8v42.6h2.8zm-5.6 0V85.2h-2.8v42.6h2.8zm82.4-85.3h-42.6v42.6h42.6V42.6zM341 255.8h-42.6v2.8H341v-2.8zm0 5.6h-42.6v2.8H341v-2.8zm0 5.7h-42.6v2.8H341v-2.8zm0 5.7h-42.6v2.8H341v-2.8zm0 5.7h-42.6v2.8H341v-2.8zm0 5.7h-42.6v2.8H341v-2.8zm0 5.7h-42.6v2.8H341v-2.8zm0 5.6h-42.6v2.8H341v-2.8zm-85.2 2.9v-42.6H253v42.6h2.8zm-5.7 0v-42.6h-2.8v42.6h2.8zm-5.7 0v-42.6h-2.8v42.6h2.8zm-5.7 0v-42.6h-2.8v42.6h2.8zm-5.7 0v-42.6h-2.8v42.6h2.8zm-5.7 0v-42.6h-2.8v42.6h2.8zm-5.7 0v-42.6h-2.8v42.6h2.8zm-5.6 0v-42.6h-2.8v42.6h2.8zm82.4-85.3h-42.6v42.6h42.6v-42.6zm-127.9 42.7h-42.6v2.8h42.6v-2.8zm0 5.6h-42.6v2.8h42.6v-2.8zm0 5.7h-42.6v2.8h42.6v-2.8zm0 5.7h-42.6v2.8h42.6v-2.8zm0 5.7h-42.6v2.8h42.6v-2.8zm0 5.7h-42.6v2.8h42.6v-2.8zm0 5.7h-42.6v2.8h42.6v-2.8zm0 5.6h-42.6v2.8h42.6v-2.8zm0-125h-42.6v2.8h42.6v-2.8zm0 5.7h-42.6v2.8h42.6v-2.8zm0 5.7h-42.6v2.8h42.6v-2.8zm0 5.7h-42.6v2.8h42.6v-2.8zm0 5.6h-42.6v2.8h42.6v-2.8zm0 5.7h-42.6v2.8h42.6v-2.8zm0 5.7h-42.6v2.8h42.6v-2.8zm0 5.7h-42.6v2.8h42.6v-2.8zm42.6-82.4h-42.6v42.6h42.6v-42.6zm42.7 0V85.2H253v42.6h2.8zm-5.7 0V85.2h-2.8v42.6h2.8zm-5.7 0V85.2h-2.8v42.6h2.8zm-5.7 0V85.2h-2.8v42.6h2.8zm-5.7 0V85.2h-2.8v42.6h2.8zm-5.7 0V85.2h-2.8v42.6h2.8zm-5.7 0V85.2h-2.8v42.6h2.8zm-5.6 0V85.2h-2.8v42.6h2.8zM42.6 213.1H0v42.6h42.6v-42.6zm42.6 0v-42.6h-2.8v42.6h2.8zm-5.6 0v-42.6h-2.8v42.6h2.8zm-5.7 0v-42.6H71v42.6h2.9zm-5.7 0v-42.6h-2.8v42.6h2.8zm-5.7 0v-42.6h-2.8v42.6h2.8zm-5.7 0v-42.6H54v42.6h2.8zm-5.6 0v-42.6h-2.8v42.6h2.8zm-5.7 0v-42.6h-2.8v42.6h2.8zm39.7-85.2V85.2h-2.8v42.6h2.8zm-5.6 0V85.2h-2.8v42.6h2.8zm-5.7 0V85.2H71v42.6h2.9zm-5.7 0V85.2h-2.8v42.6h2.8zm-5.7 0V85.2h-2.8v42.6h2.8zm-5.7 0V85.2H54v42.6h2.8zm-5.6 0V85.2h-2.8v42.6h2.8zm-5.7 0V85.2h-2.8v42.6h2.8zm82.4-85.3H85.2v42.6h42.6V42.6z"/>
  <path class="st1" d="M554.1 255.8h-42.6v-42.6h42.6v42.6zm85.3-127.9h-42.6v42.6h42.6v-42.6zM682 85.2h-42.6V88H682v-2.8zm0 5.7h-42.6v2.8H682v-2.8zm0 5.7h-42.6v2.8H682v-2.8zm0 5.7h-42.6v2.8H682v-2.8zm0 5.7h-42.6v2.8H682V108zm0 5.7h-42.6v2.8H682v-2.8zm0 5.6h-42.6v2.8H682v-2.8zm0 5.7h-42.6v2.8H682V125zM426.2 298.4v-42.6h-2.8v42.6h2.8zm-5.6 0v-42.6h-2.8v42.6h2.8zm-5.7 0v-42.6H412v42.6h2.9zm-5.7 0v-42.6h-2.8v42.6h2.8zm-5.7 0v-42.6h-2.8v42.6h2.8zm-5.7 0v-42.6H395v42.6h2.8zm-5.7 0v-42.6h-2.8v42.6h2.8zm-5.6 0v-42.6h-2.8v42.6h2.8zM639.4 42.6h-42.6v42.6h42.6V42.6zM682 0h-42.6v2.8H682V0zm0 5.7h-42.6v2.8H682V5.7zm0 5.7h-42.6v2.8H682v-2.8zm0 5.6h-42.6v2.8H682V17zm0 5.7h-42.6v2.8H682v-2.8zm0 5.7h-42.6v2.8H682v-2.8zm0 5.7h-42.6v2.8H682v-2.8zm0 5.7h-42.6v2.8H682v-2.8zm-213.1 88.1h-42.6v42.6h42.6v-42.6zm42.6-42.7h-42.6V88h42.6v-2.8zm0 5.7h-42.6v2.8h42.6v-2.8zm0 5.7h-42.6v2.8h42.6v-2.8zm0 5.7h-42.6v2.8h42.6v-2.8zm0 5.7h-42.6v2.8h42.6V108zm0 5.7h-42.6v2.8h42.6v-2.8zm0 5.6h-42.6v2.8h42.6v-2.8zm0 5.7h-42.6v2.8h42.6V125zm-127.9 2.9H341v42.6h42.6v-42.6zm0-85.3H341v42.6h42.6V42.6zm42.6 0V0h-2.8v42.6h2.8zm-5.6 0V0h-2.8v42.6h2.8zm-5.7 0V0H412v42.6h2.9zm-5.7 0V0h-2.8v42.6h2.8zm-5.7 0V0h-2.8v42.6h2.8zm-5.7 0V0H395v42.6h2.8zm-5.7 0V0h-2.8v42.6h2.8zm-5.6 0V0h-2.8v42.6h2.8zM213.1 213.1h-42.6v42.6h42.6v-42.6zm85.3-85.2h-42.6v42.6h42.6v-42.6zM341 85.2h-42.6V88H341v-2.8zm0 5.7h-42.6v2.8H341v-2.8zm0 5.7h-42.6v2.8H341v-2.8zm0 5.7h-42.6v2.8H341v-2.8zm0 5.7h-42.6v2.8H341V108zm0 5.7h-42.6v2.8H341v-2.8zm0 5.6h-42.6v2.8H341v-2.8zm0 5.7h-42.6v2.8H341V125zM85.2 298.4v-42.6h-2.8v42.6h2.8zm-5.6 0v-42.6h-2.8v42.6h2.8zm-5.7 0v-42.6H71v42.6h2.9zm-5.7 0v-42.6h-2.8v42.6h2.8zm-5.7 0v-42.6h-2.8v42.6h2.8zm-5.7 0v-42.6H54v42.6h2.8zm-5.6 0v-42.6h-2.8v42.6h2.8zm-5.7 0v-42.6h-2.8v42.6h2.8zM298.4 42.6h-42.6v42.6h42.6V42.6zM341 0h-42.6v2.8H341V0zm0 5.7h-42.6v2.8H341V5.7zm0 5.7h-42.6v2.8H341v-2.8zm0 5.6h-42.6v2.8H341V17zm0 5.7h-42.6v2.8H341v-2.8zm0 5.7h-42.6v2.8H341v-2.8zm0 5.7h-42.6v2.8H341v-2.8zm0 5.7h-42.6v2.8H341v-2.8zm-213.1 88.1H85.2v42.6h42.6v-42.6zm42.6-42.7h-42.6V88h42.6v-2.8zm0 5.7h-42.6v2.8h42.6v-2.8zm0 5.7h-42.6v2.8h42.6v-2.8zm0 5.7h-42.6v2.8h42.6v-2.8zm0 5.7h-42.6v2.8h42.6V108zm0 5.7h-42.6v2.8h42.6v-2.8zm0 5.6h-42.6v2.8h42.6v-2.8zm0 5.7h-42.6v2.8h42.6V125zm-127.9 2.9H0v42.6h42.6v-42.6zm0-85.3H0v42.6h42.6V42.6zm42.6 0V0h-2.8v42.6h2.8zm-5.6 0V0h-2.8v42.6h2.8zm-5.7 0V0H71v42.6h2.9zm-5.7 0V0h-2.8v42.6h2.8zm-5.7 0V0h-2.8v42.6h2.8zm-5.7 0V0H54v42.6h2.8zm-5.6 0V0h-2.8v42.6h2.8zm-5.7 0V0h-2.8v42.6h2.8z"/>
</svg>
